<svg width="22" height="23" viewBox="0 0 22 23" fill="none" xmlns="http://www.w3.org/2000/svg">
<g filter="url(#filter0_d_1287_5553)">
<path d="M5.5 1C4.94772 1 4.5 1.44772 4.5 2V3C4.5 3.55228 4.94772 4 5.5 4H6V13C6 14.1046 6.89543 15 8 15H14C15.1046 15 16 14.1046 16 13V4H16.5C17.0523 4 17.5 3.55228 17.5 3V2C17.5 1.44772 17.0523 1 16.5 1H13C13 0.447715 12.5523 0 12 0H10C9.44772 0 9 0.447715 9 1H5.5ZM8.5 5C8.77614 5 9 5.22386 9 5.5V12.5C9 12.7761 8.77614 13 8.5 13C8.22386 13 8 12.7761 8 12.5L8 5.5C8 5.22386 8.22386 5 8.5 5ZM11 5C11.2761 5 11.5 5.22386 11.5 5.5V12.5C11.5 12.7761 11.2761 13 11 13C10.7239 13 10.5 12.7761 10.5 12.5V5.5C10.5 5.22386 10.7239 5 11 5ZM14 5.5V12.5C14 12.7761 13.7761 13 13.5 13C13.2239 13 13 12.7761 13 12.5V5.5C13 5.22386 13.2239 5 13.5 5C13.7761 5 14 5.22386 14 5.5Z" fill="#FF0000" fill-opacity="0.7"/>
</g>
<defs>
<filter id="filter0_d_1287_5553" x="-1" y="0" width="24" height="24" filterUnits="userSpaceOnUse" color-interpolation-filters="sRGB">
<feFlood flood-opacity="0" result="BackgroundImageFix"/>
<feColorMatrix in="SourceAlpha" type="matrix" values="0 0 0 0 0 0 0 0 0 0 0 0 0 0 0 0 0 0 127 0" result="hardAlpha"/>
<feOffset dy="4"/>
<feGaussianBlur stdDeviation="2"/>
<feComposite in2="hardAlpha" operator="out"/>
<feColorMatrix type="matrix" values="0 0 0 0 0 0 0 0 0 0 0 0 0 0 0 0 0 0 0.25 0"/>
<feBlend mode="normal" in2="BackgroundImageFix" result="effect1_dropShadow_1287_5553"/>
<feBlend mode="normal" in="SourceGraphic" in2="effect1_dropShadow_1287_5553" result="shape"/>
</filter>
</defs>
</svg>
